Coordinates
version=1
nRows=13
nColumns=38
inDegrees=no

Units are S.I. units (second, meters, Newtons, ...)
If the header above contains a line with 'inDegrees', this indicates whether rotational values are in degrees (yes) or radians (no).

endheader
time	pelvis_tilt	pelvis_list	pelvis_rotation	pelvis_tx	pelvis_ty	pelvis_tz	hip_flexion_r	hip_adduction_r	hip_rotation_r	knee_angle_r	ankle_angle_r	subtalar_angle_r	mtp_angle_r	hip_flexion_l	hip_adduction_l	hip_rotation_l	knee_angle_l	ankle_angle_l	subtalar_angle_l	mtp_angle_l	lumbar_extension	lumbar_bending	lumbar_rotation	arm_flex_r	arm_add_r	arm_rot_r	elbow_flex_r	pro_sup_r	wrist_flex_r	wrist_dev_r	arm_flex_l	arm_add_l	arm_rot_l	elbow_flex_l	pro_sup_l	wrist_flex_l	wrist_dev_l
1.20752	0.480567	-0.046402	-2.9137	-0.142898	0.498607	0.0420175	2.0519	-0.605994	0.236589	2.09214	0.521516	0	0	1.90846	-0.0683525	-0.0953784	2.06131	0.521138	0	0	-0.166215	0.00737827	-0.218899	1.46705	-0.46766	0.827911	1.92937	1.49466	0	0	1.54545	-0.301315	0.941792	1.82146	1.55552	0	0
1.21749	0.480986	-0.0472902	-2.91381	-0.141839	0.496898	0.0422829	2.05783	-0.604804	0.240151	2.09214	0.521479	0	0	1.91391	-0.0672281	-0.095949	2.06449	0.52112	0	0	-0.168009	0.00764942	-0.218147	1.47018	-0.467278	0.828879	1.92888	1.49574	0	0	1.54649	-0.300012	0.941594	1.82045	1.55569	0	0
1.22747	0.481178	-0.0482392	-2.914	-0.140825	0.495265	0.0426086	2.06279	-0.603734	0.243443	2.09215	0.521441	0	0	1.91892	-0.0658551	-0.0966374	2.06749	0.521101	0	0	-0.169992	0.0080862	-0.217356	1.47321	-0.466917	0.82991	1.92834	1.4968	0	0	1.54727	-0.298663	0.941254	1.81948	1.55586	0	0
1.23745	0.481138	-0.0492462	-2.91427	-0.139858	0.49371	0.0429953	2.06678	-0.602833	0.246467	2.09218	0.521403	0	0	1.92347	-0.0642722	-0.0974716	2.0703	0.521082	0	0	-0.172169	0.00869571	-0.216533	1.47613	-0.466585	0.831009	1.92776	1.49781	0	0	1.54783	-0.297267	0.940792	1.81857	1.55602	0	0
1.24743	0.480846	-0.0503025	-2.91458	-0.138939	0.49223	0.0434402	2.06983	-0.602146	0.24927	2.09223	0.521364	0	0	1.92752	-0.0625282	-0.0984611	2.07292	0.521063	0	0	-0.174554	0.00947317	-0.215702	1.47893	-0.466297	0.832169	1.9272	1.49875	0	0	1.54824	-0.295826	0.940234	1.81772	1.55619	0	0
1.25741	0.480269	-0.0513889	-2.9149	-0.138069	0.490813	0.043935	2.07209	-0.601715	0.251955	2.09229	0.521324	0	0	1.93106	-0.0606868	-0.0995862	2.07539	0.521044	0	0	-0.177161	0.0104007	-0.214903	1.48162	-0.466063	0.833378	1.92669	1.49959	0	0	1.54855	-0.294349	0.939623	1.81693	1.55635	0	0
1.26739	0.479348	-0.0524749	-2.91516	-0.137249	0.489444	0.0444627	2.07383	-0.60157	0.254701	2.09237	0.521284	0	0	1.93409	-0.0588348	-0.100786	2.07777	0.521024	0	0	-0.180009	0.0114462	-0.214199	1.48421	-0.465889	0.834628	1.92626	1.50034	0	0	1.5488	-0.292847	0.939015	1.81622	1.55652	0	0
1.27737	0.478083	-0.0535481	-2.91529	-0.136486	0.488103	0.0450058	2.07524	-0.601725	0.257615	2.09246	0.521243	0	0	1.93663	-0.057029	-0.102025	2.08007	0.521004	0	0	-0.183091	0.0125887	-0.213634	1.4867	-0.465772	0.835917	1.92595	1.50101	0	0	1.549	-0.291335	0.938469	1.81558	1.55668	0	0
1.28735	0.476514	-0.0545894	-2.91529	-0.135779	0.486778	0.045556	2.0765	-0.602169	0.260739	2.09256	0.521202	0	0	1.93872	-0.0553106	-0.103279	2.0823	0.520984	0	0	-0.186372	0.0138052	-0.213224	1.48912	-0.4657	0.837251	1.92574	1.50166	0	0	1.5492	-0.289831	0.938036	1.81503	1.55685	0	0
1.29733	0.474704	-0.0555825	-2.91516	-0.135123	0.485463	0.0461057	2.07771	-0.602856	0.264051	2.09267	0.52116	0	0	1.94043	-0.0537183	-0.104532	2.08442	0.520964	0	0	-0.189797	0.0150738	-0.212955	1.49149	-0.465656	0.838638	1.92564	1.50233	0	0	1.54939	-0.288349	0.937753	1.81458	1.55701	0	0
1.30731	0.472725	-0.0565139	-2.91495	-0.134512	0.484152	0.0466471	2.07895	-0.603711	0.267483	2.09277	0.521118	0	0	1.94184	-0.0522938	-0.105769	2.08639	0.520944	0	0	-0.193296	0.0163734	-0.212782	1.49384	-0.46562	0.840095	1.92562	1.50307	0	0	1.5496	-0.286901	0.937642	1.81422	1.55717	0	0
1.31729	0.470661	-0.0573702	-2.91472	-0.133937	0.482844	0.0471726	2.08023	-0.604636	0.270935	2.09288	0.521075	0	0	1.94303	-0.0510734	-0.106975	2.08816	0.520923	0	0	-0.196798	0.0176886	-0.212638	1.49618	-0.465568	0.841637	1.92564	1.50393	0	0	1.54982	-0.285491	0.937706	1.81395	1.55733	0	0
1.32727	0.468588	-0.0581372	-2.91453	-0.133388	0.48154	0.0476772	2.08157	-0.605538	0.274292	2.09299	0.521034	0	0	1.94407	-0.0500737	-0.108143	2.08967	0.520903	0	0	-0.200235	0.0190141	-0.212452	1.49851	-0.465483	0.843279	1.92568	1.50498	0	0	1.55006	-0.284122	0.937933	1.81376	1.5575	0	0
